# xmcd
#
# Track frame offsets:
#	150
#	24949
#	39464
#	59880
#	89920
#	108166
#	126934
#	149301
#	162760
#	180235
#	191137
#	203371
#	217296
#
# Disc length: 3064 seconds
#
# Revision: 2
# Processed by: cddbd v1.5.2PL0 Copyright (c) Steve Scherf et al.
# Submitted via: audiograbber 1.83.01
#
DISCID=bd0bf60d
DTITLE=Simply Salsa - Simply Salsa [CD1)
DYEAR=2004
DGENRE=Salsa
TTITLE0=Ritmo Alegria - Asi Se Compone Un Son
TTITLE1=Cheo Feliciano - Oye Como Va
TTITLE2=Ritmo Alegria - La Temperatura
TTITLE3=Ritmo Alegria - Desengaños De La Vida
TTITLE4=Ritmo Alegria - El Hospital Del Amor
TTITLE5=Ritmo Alegria - Mueve La Cintura
TTITLE6=Ritmo Alegria - Fuege Caribe
TTITLE7=Cheo Feliciano - Arinanara
TTITLE8=Rey Caney Con Orquesta - Para Usted Bailar
TTITLE9=Beinvenido Granda - El Tubo
TTITLE10=La Sonora Matancera Y Celio Gonzales - Besito De Coco
TTITLE11=Roberto Faz Y Su Conjunto - La Tumba Brava
TTITLE12=La  Sonora Matancera y Celio Gonzales - El Beso
EXTD=YEAR: 2004
EXTT0=
EXTT1=
EXTT2=
EXTT3=
EXTT4=
EXTT5=
EXTT6=
EXTT7=
EXTT8=
EXTT9=
EXTT10=
EXTT11=
EXTT12=
PLAYORDER=
